<?xml version="1.0" encoding="UTF-8"?>
<svg id="Ebene_1" xmlns="http://www.w3.org/2000/svg" viewBox="0 0 64 64"><polygon points="64 64 0 64 64 0 64 64" fill="#b2ba2e"/><path d="M29.92,19.44c-.01-.49-.03-1.01-.28-1.45-.12-.22-.28-.43-.45-.61-.12-.13-.2-.14-.2-.31,0-.5.02-1,0-1.5,0-2.12-2.22-3.94-4.17-4.31-.28-.05-.57-.09-.86-.1-.14,0-.27-.01-.41-.01-.05-.12-.1-.23-.15-.34-.29-.56-.7-1.07-1.13-1.52-.81-.85-1.79-1.56-2.92-1.93-1.22-.41-2.5-.39-3.77-.4-1.22-.01-2.47.04-3.63.46-2.21.8-4.34,2.97-4.34,5.39v3.84c-.5-.06-.93.39-1.2.75-.39.52-.4,1.11-.42,1.73-.01.54-.01,1.09.09,1.62.11.56.55.97.96,1.34.21.19.42.37.64.55.13.1.48.28.55.42.07.15-.03.52-.03.69,0,.36,0,.71.02,1.07.04.54.07,1.18.29,1.69.25.58.66,1.07,1.06,1.56.79.97,1.68,1.86,2.62,2.69.45.4.92.78,1.41,1.14.51.39.93.7,1.58.79.54.08,1.11.05,1.63-.12.54-.17,1.02-.64,1.46-.99.98-.78,1.91-1.62,2.76-2.54.23-.25.46-.51.68-.78.31.15.65.22,1,.25.65.05,1.36-.05,1.9-.42,1.13-.77,2.16-1.74,3.01-2.79.32-.4.65-.81.8-1.3.17-.55.22-1.13.22-1.7.45-.38.91-.82,1.11-1.39.1-.28.13-.58.15-.88.01-.19.01-.39,0-.59-.03-.02-.18,0-.22,0h.24ZM28.58,20.15c-.05.44-.3.72-.62,1.01-.17.15-.35.3-.53.43-.16.12-.1.2-.1.4.01.46,0,.93-.1,1.39-.11.49-.43.87-.75,1.25-.61.74-1.32,1.39-2.07,1.98-.36.28-.67.54-1.14.59-.53.06-.94-.07-1.36-.38-.76-.57-1.47-1.2-2.11-1.91-.3-.34-.66-.71-.86-1.13-.21-.44-.24-.97-.24-1.45,0-.22,0-.43.02-.65,0-.06-.31-.25-.36-.3-.39-.32-.82-.66-.89-1.18-.06-.45-.06-.93.01-1.38.05-.35.48-.89.88-.84,0-.81-.04-1.63,0-2.43,0-.93.8-1.79,1.5-2.32.92-.7,2.03-.82,3.15-.8,1.08,0,2.12.07,3.03.71.75.52,1.62,1.44,1.62,2.41.04.81,0,1.63,0,2.43.36-.04.79.42.86.74.1.44.09.97.04,1.42-.01.11.02-.22,0,0h.02Z" fill="#3f4249"/><path d="M44.96,38.2c-3.64,0-6.55,1.66-8.67,3.63-2.11,1.96-3.51,4.29-4.19,5.9-.15.36-.15.75,0,1.11.67,1.61,2.08,3.95,4.19,5.9,2.12,1.97,5.03,3.63,8.67,3.63s6.55-1.66,8.67-3.63c2.11-1.96,3.51-4.29,4.19-5.9.15-.36.15-.75,0-1.11-.67-1.61-2.08-3.95-4.19-5.9-2.12-1.97-5.03-3.63-8.67-3.63ZM38.48,48.28c0-3.58,2.9-6.48,6.48-6.48s6.48,2.9,6.48,6.48-2.9,6.48-6.48,6.48-6.48-2.9-6.48-6.48ZM44.96,45.4c0,1.59-1.29,2.88-2.88,2.88-.52,0-1-.14-1.43-.38-.05.49,0,.99.13,1.49.62,2.3,2.99,3.67,5.29,3.06,2.3-.62,3.67-2.99,3.06-5.29-.55-2.06-2.5-3.37-4.55-3.19.24.42.38.9.38,1.43Z" fill="#3f4249"/><circle cx="44.96" cy="48.28" r="5.54" fill="none" stroke="#b2ba2e" stroke-miterlimit="10" stroke-width="3"/></svg>